<svg width="800" height="220" viewBox="0 0 800 220" xmlns="http://www.w3.org/2000/svg" role="img" aria-label="Visitor traffic over the last 91 days">
  <rect width="800" height="220" fill="#FFFFFF" rx="8"/>
  <line x1="20" y1="192" x2="780" y2="192" stroke="#E2E8F0" stroke-width="1"/>
  <defs>
    <linearGradient id="fill-light" x1="0" y1="0" x2="0" y2="1">
      <stop offset="0%" stop-color="rgba(30,155,215,0.25)"/>
      <stop offset="100%" stop-color="rgba(30,155,215,0)"/>
    </linearGradient>
  </defs>
  <path d="M20.0,192.0 L28.4,192.0 L36.9,192.0 L45.3,192.0 L53.8,192.0 L62.2,192.0 L70.7,192.0 L79.1,192.0 L87.6,192.0 L96.0,192.0 L104.4,192.0 L112.9,192.0 L121.3,192.0 L129.8,192.0 L138.2,192.0 L146.7,192.0 L155.1,192.0 L163.6,192.0 L172.0,192.0 L180.4,192.0 L188.9,192.0 L197.3,192.0 L205.8,192.0 L214.2,192.0 L222.7,192.0 L231.1,192.0 L239.6,192.0 L248.0,192.0 L256.4,192.0 L264.9,192.0 L273.3,192.0 L281.8,192.0 L290.2,192.0 L298.7,192.0 L307.1,192.0 L315.6,192.0 L324.0,192.0 L332.4,192.0 L340.9,192.0 L349.3,192.0 L357.8,192.0 L366.2,192.0 L374.7,192.0 L383.1,192.0 L391.6,192.0 L400.0,192.0 L408.4,192.0 L416.9,192.0 L425.3,192.0 L433.8,192.0 L442.2,192.0 L450.7,192.0 L459.1,192.0 L467.6,63.0 L476.0,20.0 L484.4,48.7 L492.9,84.5 L501.3,91.7 L509.8,149.0 L518.2,170.5 L526.7,170.5 L535.1,156.2 L543.6,156.2 L552.0,141.8 L560.4,141.8 L568.9,127.5 L577.3,113.2 L585.8,134.7 L594.2,77.3 L602.7,127.5 L611.1,77.3 L619.6,134.7 L628.0,170.5 L636.4,156.2 L644.9,177.7 L653.3,163.3 L661.8,163.3 L670.2,127.5 L678.7,113.2 L687.1,134.7 L695.6,149.0 L704.0,149.0 L712.4,149.0 L720.9,141.8 L729.3,141.8 L737.8,170.5 L746.2,113.2 L754.7,120.3 L763.1,141.8 L771.6,106.0 L780.0,192.0 L780.0,192 L20.0,192 Z" fill="url(#fill-light)" stroke="none"/>
  <path d="M20.0,192.0 L28.4,192.0 L36.9,192.0 L45.3,192.0 L53.8,192.0 L62.2,192.0 L70.7,192.0 L79.1,192.0 L87.6,192.0 L96.0,192.0 L104.4,192.0 L112.9,192.0 L121.3,192.0 L129.8,192.0 L138.2,192.0 L146.7,192.0 L155.1,192.0 L163.6,192.0 L172.0,192.0 L180.4,192.0 L188.9,192.0 L197.3,192.0 L205.8,192.0 L214.2,192.0 L222.7,192.0 L231.1,192.0 L239.6,192.0 L248.0,192.0 L256.4,192.0 L264.9,192.0 L273.3,192.0 L281.8,192.0 L290.2,192.0 L298.7,192.0 L307.1,192.0 L315.6,192.0 L324.0,192.0 L332.4,192.0 L340.9,192.0 L349.3,192.0 L357.8,192.0 L366.2,192.0 L374.7,192.0 L383.1,192.0 L391.6,192.0 L400.0,192.0 L408.4,192.0 L416.9,192.0 L425.3,192.0 L433.8,192.0 L442.2,192.0 L450.7,192.0 L459.1,192.0 L467.6,63.0 L476.0,20.0 L484.4,48.7 L492.9,84.5 L501.3,91.7 L509.8,149.0 L518.2,170.5 L526.7,170.5 L535.1,156.2 L543.6,156.2 L552.0,141.8 L560.4,141.8 L568.9,127.5 L577.3,113.2 L585.8,134.7 L594.2,77.3 L602.7,127.5 L611.1,77.3 L619.6,134.7 L628.0,170.5 L636.4,156.2 L644.9,177.7 L653.3,163.3 L661.8,163.3 L670.2,127.5 L678.7,113.2 L687.1,134.7 L695.6,149.0 L704.0,149.0 L712.4,149.0 L720.9,141.8 L729.3,141.8 L737.8,170.5 L746.2,113.2 L754.7,120.3 L763.1,141.8 L771.6,106.0 L780.0,192.0" fill="none" stroke="#1E9BD7" stroke-width="2.5" stroke-linejoin="round" stroke-linecap="round"/>
  <text x="20" y="212" font-family="monospace" font-size="11" fill="#475569">07-09</text>
  <text x="780" y="212" font-family="monospace" font-size="11" fill="#475569" text-anchor="end">10-07</text>
</svg>